HIERARCHY
ROOT Hips
{
    OFFSET 0.0 0.0 0.0
    CHANNELS 6 Xposition Yposition Zposition Zrotation Xrotation Yrotation
    JOINT LeftHipJoint
    {
        OFFSET 0.1 0.0 0.0
        CHANNELS 3 Zrotation Xrotation Yrotation
        JOINT LeftUpLeg
        {
            OFFSET 121.934809401482 0.0 0.0
            CHANNELS 3 Zrotation Xrotation Yrotation
            JOINT LeftLeg
            {
                OFFSET 0.0 0.0 -413.06220074831197
                CHANNELS 3 Zrotation Xrotation Yrotation
                JOINT LeftFoot
                {
                    OFFSET 0.0 0.0 -379.7717348880168
                    CHANNELS 3 Zrotation Xrotation Yrotation
                    End Site
                    {
                        OFFSET 0.0 -0.1 0.0
                    }
                }
            }
        }
    }
    JOINT LowerBack
    {
        OFFSET 0.0 0.0 0.1
        CHANNELS 3 Zrotation Xrotation Yrotation
        JOINT Spine
        {
            OFFSET 0.0 0.0 217.07334118429776
            CHANNELS 3 Zrotation Xrotation Yrotation
            JOINT Spine1
            {
                OFFSET 0.0 0.0 254.0497830128813
                CHANNELS 3 Zrotation Xrotation Yrotation
                JOINT LeftShoulder
                {
                    OFFSET 0.1 0.0 0.0
                    CHANNELS 3 Zrotation Xrotation Yrotation
                    JOINT LeftArm
                    {
                        OFFSET 138.71702456286886 0.0 0.0
                        CHANNELS 3 Zrotation Xrotation Yrotation
                        JOINT LeftForeArm
                        {
                            OFFSET 255.08449952110266 0.0 0.0
                            CHANNELS 3 Zrotation Xrotation Yrotation
                            JOINT LeftHand
                            {
                                OFFSET 234.64729466565137 0.0 0.0
                                CHANNELS 3 Zrotation Xrotation Yrotation
                                End Site
                                {
                                    OFFSET 0.1 0.0 0.0
                                }
                            }
                        }
                    }
                }
                JOINT Neck
                {
                    OFFSET 0.0 0.0 0.1
                    CHANNELS 3 Zrotation Xrotation Yrotation
                    JOINT Neck1
                    {
                        OFFSET 0.0 0.0 106.8995174330398
                        CHANNELS 3 Zrotation Xrotation Yrotation
                        End Site
                        {
                            OFFSET 0.0 0.0 112.4096813850453
                        }
                    }
                }
                JOINT RightShoulder
                {
                    OFFSET -0.1 0.0 0.0
                    CHANNELS 3 Zrotation Xrotation Yrotation
                    JOINT RightArm
                    {
                        OFFSET -138.71702456286886 0.0 0.0
                        CHANNELS 3 Zrotation Xrotation Yrotation
                        JOINT RightForeArm
                        {
                            OFFSET -255.08449952110266 0.0 0.0
                            CHANNELS 3 Zrotation Xrotation Yrotation
                            JOINT RightHand
                            {
                                OFFSET -234.64729466565137 0.0 0.0
                                CHANNELS 3 Zrotation Xrotation Yrotation
                                End Site
                                {
                                    OFFSET -0.1 0.0 0.0
                                }
                            }
                        }
                    }
                }
            }
        }
    }
    JOINT RightHipJoint
    {
        OFFSET -0.1 0.0 0.0
        CHANNELS 3 Zrotation Xrotation Yrotation
        JOINT RightUpLeg
        {
            OFFSET -121.934809401482 0.0 0.0
            CHANNELS 3 Zrotation Xrotation Yrotation
            JOINT RightLeg
            {
                OFFSET 0.0 0.0 -413.06220074831197
                CHANNELS 3 Zrotation Xrotation Yrotation
                JOINT RightFoot
                {
                    OFFSET 0.0 0.0 -379.7717348880168
                    CHANNELS 3 Zrotation Xrotation Yrotation
                    End Site
                    {
                        OFFSET 0.0 -0.1 0.0
                    }
                }
            }
        }
    }
}
MOTION
Frames: 7
Frame Time: 0.03333333333333333
0.0 0.0 803.2853793124435 26.88426325503107 -0.11501438745675546 5.211115676462369 0.0 0.0 -1.4908850069360235e-16 -1.470493752605261 -14.408429002445532 -2.6447341909773217 1.8557949028943477 29.659311981068782 -2.0879550300397454 0.0 0.0 0.0 0.0 0.0 -1.4908850069360235e-16 -0.2160771490284576 -2.1580719286604144 -0.5656930128551326 2.6190125927291037 4.088226702989289e-16 4.87746143974022e-16 -3.1805546814635168e-15 1.987846675914698e-16 -6.957463365701443e-16 -29.82537989873194 19.962895363340184 78.537021650073 -31.03412216580636 3.2439756761538336e-15 -1.1683887071302511e-14 0.0 0.0 -1.987846675914698e-16 -3.1805546814635168e-15 1.987846675914698e-16 -6.957463365701443e-16 -2.9352221334521604 -2.9645356878655016 -3.3223358366941698 -3.1805546814635168e-15 1.987846675914698e-16 -6.957463365701443e-16 30.79344283607106 12.016390201655916 -82.39355086652596 19.94292758161317 -2.1376829706577667e-14 6.9876716998549276e-15 6.3611093629270335e-15 0.0 0.0 0.0 0.0 -1.4908850069360235e-16 -1.1587185672656508 -11.397450545169153 -5.634542916054296 0.11273696053763968 29.72703713761019 1.2977215980045178 0.0 0.0 0.0
0.0 0.0 803.2853793124435 27.066046379621724 -0.03144332780185991 5.169185198366889 0.0 0.0 -1.987846675914698e-16 -1.4901138016116664 -14.396086178775473 -2.6314561648168295 1.8994289528933428 29.514243459421436 -1.9942999252642803 -6.896728590703373e-34 -1.9878466759146977e-16 -3.9756933518293955e-16 0.0 0.0 -1.987846675914698e-16 -0.23498633619601264 -2.3139782038103327 -0.4935805042822535 2.535612943857955 -3.6448529710684656e-16 1.4993164937321823e-15 0.0 0.0 0.0 -29.97801029058237 20.12703568285274 78.11602648755108 -31.389320014077384 3.9792304049665015e-15 -1.4161629479283258e-14 1.5902773407317588e-15 3.034560579909484e-32 2.186631343506168e-15 0.0 0.0 0.0 -3.028404482623973 -2.913040529275085 -3.4084943804760575 0.0 0.0 0.0 31.094858647188385 12.183623361527092 -82.50842047418874 19.83328758863641 3.680775138921289e-15 2.5852950586457145e-15 0.0 3.1805546814635168e-15 0.0 0.0 0.0 -1.987846675914698e-16 -1.1686185943385015 -11.336873172577734 -5.646011678510507 0.15348452416023625 29.913837556187747 1.3596815497326953 -2.344887720839147e-32 3.3793393490549868e-15 7.951386703658792e-16
0.0 0.0 803.2853793124435 27.017083130819287 -0.09639835857820798 5.131297078940484 0.0 0.0 1.987846675914698e-16 -1.5084527146271396 -14.331104639305492 -2.6062653616818867 1.9668712601359144 29.471986011848255 -1.8141013229909293 0.0 0.0 -3.975693351829396e-16 0.0 0.0 1.987846675914698e-16 -0.24138285487127503 -2.337141428204615 -0.4702745916051285 2.5533557626577292 -7.94941286198391e-16 1.771599865844358e-17 0.0 0.0 -1.987846675914698e-16 -29.849375277799833 20.436940779366775 77.67490420882854 -31.610868079772246 -4.2655975215235004e-15 -2.447052993884006e-15 -1.5902773407317582e-15 -1.5902773407317582e-15 5.963540027744093e-16 0.0 0.0 -1.987846675914698e-16 -2.9527354981233924 -2.7914142973142297 -3.436898413187727 0.0 0.0 -1.987846675914698e-16 31.005521706713314 12.429177632106125 -82.5088220111814 19.87996080391492 7.363655651828172e-15 5.167591324353634e-15 0.0 0.0 0.0 0.0 0.0 1.987846675914698e-16 -1.1769184355655902 -11.22980722439767 -5.62620043124471 0.2236741552063309 30.198887882546043 1.3364272563548245 0.0 0.0 -7.951386703658792e-16
0.0 0.0 803.2853793124435 27.006150199392085 -0.07700685565900085 5.033803276245766 0.0 0.0 -4.969616689786745e-17 -1.5129979482220064 -14.383032133831056 -2.5571058991709097 2.001289491803859 29.575228203367953 -1.6553681012104535 0.0 0.0 7.951386703658792e-16 0.0 0.0 -4.969616689786745e-17 -0.2450650675851571 -2.3746007424964617 -0.3638864258092281 2.4683579066689205 1.0001151412898158e-15 2.766998916794064e-16 0.0 0.0 0.0 -29.36818364961058 20.49062196928379 76.89057771127062 -32.26567250900128 5.578770105328907e-15 -1.9286610613696733e-14 1.5902773407317588e-15 -1.5902773407317588e-15 2.9817700138720476e-15 0.0 0.0 0.0 -2.819699081389012 -2.772875215661795 -3.5168737359613313 0.0 0.0 0.0 31.477686478274567 12.584907122805408 -82.45015840647177 20.024340869282263 -7.370160731371563e-15 -5.158309359468909e-15 0.0 0.0 0.0 0.0 0.0 -4.969616689786745e-17 -1.1684429268543879 -11.159456819629272 -5.511879528473977 0.2896597803654864 30.458387474093193 1.3145789194003088 0.0 0.0 0.0
0.0 0.0 803.2853793124435 26.984707068776064 -0.1916880603322749 4.856765143173609 0.0 0.0 2.484808344893372e-16 -1.455922711128853 -14.31942933714444 -2.4152286648664005 1.9656163997814142 29.56112972915929 -1.4288944095729623 0.0 0.0 7.951386703658792e-16 0.0 0.0 2.484808344893372e-16 -0.22573067763217625 -2.2625865157347183 -0.13834226566917449 2.3142248160561936 7.929693916032361e-16 -1.1542913457604593e-16 0.0 0.0 -9.93923337957349e-17 -28.620827099857888 20.15440966667132 75.69417003134606 -33.0286514840335 -6.61114932267827e-15 2.229839118860299e-14 1.5902773407317582e-15 3.180554681463516e-15 -5.367186024969683e-15 0.0 0.0 -9.93923337957349e-17 -2.744708346752633 -2.8222952631695817 -3.625124276620417 0.0 0.0 -9.93923337957349e-17 32.30770341008507 12.648977863492949 -82.434283740532 20.183054230822517 -3.688649050394906e-15 -2.5740482409193e-15 0.0 0.0 0.0 0.0 0.0 2.484808344893372e-16 -1.1087772656855428 -10.958373852685593 -5.293939185736441 0.2985818674323597 30.431727506551244 1.4268965397618392 0.0 -2.9817700138720468e-15 0.0
0.0 0.0 803.2853793124435 27.070065726396003 -0.4040640944598865 4.707761411489708 0.0 0.0 9.93923337957349e-17 -1.4190528865452063 -14.27427332153609 -2.3601264545209313 1.9206662212114987 29.53650910918063 -1.223588456081288 6.896728590703373e-34 1.987846675914698e-16 -3.975693351829396e-16 0.0 0.0 9.93923337957349e-17 -0.20765016705128095 -2.128675453180648 0.10527266006480235 2.2786249990679894 1.9874536881425733e-16 -3.95252379322091e-18 0.0 0.0 0.0 -27.26659455881904 19.761943221292164 74.01253584075978 -34.31361641141696 -5.6191418282291434e-15 7.41908884664974e-15 0.0 0.0 -7.951386703658792e-16 0.0 0.0 0.0 -2.8034156006741657 -2.981840513267098 -3.7606314399034217 0.0 0.0 0.0 32.81094024327692 12.56601784321524 -82.33498929398009 20.231949817885845 -2.013837597224801e-15 6.820857610366991e-15 -8.827812596100317e-32 3.1805546814635164e-15 3.1805546814635164e-15 0.0 0.0 9.93923337957349e-17 -1.0546223181690897 -10.666936757089685 -5.085358763496669 0.3400160960104092 30.228945016355375 1.3543318938659659 -1.3793457181406746e-33 -1.987846675914698e-16 -7.951386703658792e-16
0.0 0.0 803.2853793124435 27.065065661344658 -0.3693009504149726 4.610708925657591 0.0 0.0 2.4848083448933725e-16 -1.4099461619537748 -14.52797652652847 -2.3648052212803012 1.8494105206350782 29.64012293244311 -1.1226544309951891 0.0 0.0 0.0 0.0 0.0 2.4848083448933725e-16 -0.20743146160575984 -2.180054178914058 0.2946799784309735 2.2736824866805274 1.971975796147844e-17 9.93727695539487e-16 0.0 0.0 9.93923337957349e-17 -26.060817551426872 19.71362473887131 72.25838332198592 -36.320795302961564 -2.28897734642893e-15 -1.8533307695078112e-14 -1.5902773407317584e-15 -5.241513728934563e-32 3.776908684237926e-15 0.0 0.0 9.93923337957349e-17 -2.8451307059924167 -3.1303025836412552 -3.8434811848498 0.0 0.0 9.93923337957349e-17 32.99870757709907 12.798537820912829 -82.34927361417824 20.398631202906003 1.139479808678534e-14 -8.513350585814206e-15 0.0 3.1805546814635168e-15 0.0 0.0 0.0 2.4848083448933725e-16 -1.0392146187582831 -10.77526228529417 -4.979541236373296 0.3212248184038446 30.16709078423704 1.3260639084564005 2.2069531490250793e-32 -3.1805546814635168e-15 7.951386703658792e-16
